<svg width="22" height="25" viewBox="0 0 22 25" fill="none" xmlns="http://www.w3.org/2000/svg">
<g clip-path="url(#clip0)">
<path d="M10.9424 6.88477C7.8369 6.88477 5.33202 9.38966 5.33202 12.4951C5.33202 15.6006 7.8369 18.1055 10.9424 18.1055C14.0478 18.1055 16.5527 15.6006 16.5527 12.4951C16.5527 9.38966 14.0478 6.88477 10.9424 6.88477ZM10.9424 16.1426C8.93553 16.1426 7.29491 14.5068 7.29491 12.4951C7.29491 10.4834 8.93065 8.84766 10.9424 8.84766C12.9541 8.84766 14.5898 10.4834 14.5898 12.4951C14.5898 14.5068 12.9492 16.1426 10.9424 16.1426V16.1426ZM18.0908 6.65528C18.0908 7.38282 17.5049 7.96388 16.7822 7.96388C16.0547 7.96388 15.4736 7.37794 15.4736 6.65528C15.4736 5.93262 16.0595 5.34669 16.7822 5.34669C17.5049 5.34669 18.0908 5.93262 18.0908 6.65528ZM21.8066 7.98341C21.7236 6.23048 21.3232 4.67774 20.039 3.39844C18.7597 2.11914 17.207 1.71875 15.4541 1.63086C13.6474 1.52832 8.23241 1.52832 6.42577 1.63086C4.67773 1.71387 3.125 2.11426 1.84082 3.39356C0.55664 4.67286 0.161133 6.22559 0.0732421 7.97852C-0.0292968 9.78516 -0.0292968 15.2002 0.0732421 17.0068C0.15625 18.7598 0.55664 20.3125 1.84082 21.5918C3.125 22.8711 4.67285 23.2715 6.42577 23.3594C8.23241 23.4619 13.6474 23.4619 15.4541 23.3594C17.207 23.2764 18.7597 22.876 20.039 21.5918C21.3183 20.3125 21.7187 18.7598 21.8066 17.0068C21.9092 15.2002 21.9092 9.79005 21.8066 7.98341V7.98341ZM19.4726 18.9453C19.0918 19.9024 18.3545 20.6397 17.3926 21.0254C15.9521 21.5967 12.5342 21.4649 10.9424 21.4649C9.35057 21.4649 5.92773 21.5918 4.49218 21.0254C3.53515 20.6445 2.79785 19.9072 2.41211 18.9453C1.84082 17.5049 1.97265 14.0869 1.97265 12.4951C1.97265 10.9033 1.8457 7.48048 2.41211 6.04493C2.79297 5.0879 3.53027 4.35059 4.49218 3.96485C5.93261 3.39356 9.35057 3.5254 10.9424 3.5254C12.5342 3.5254 15.957 3.39844 17.3926 3.96485C18.3496 4.34571 19.0869 5.08301 19.4726 6.04493C20.0439 7.48536 19.9121 10.9033 19.9121 12.4951C19.9121 14.0869 20.0439 17.5098 19.4726 18.9453Z" fill="white"/>
</g>
<defs>
<clipPath id="clip0">
<rect width="21.875" height="25" fill="white"/>
</clipPath>
</defs>
</svg>
