<svg width="257" height="255" viewBox="0 0 257 255" fill="none" xmlns="http://www.w3.org/2000/svg">
<path d="M254.106 253.446L147.923 113.523L232.734 1.72656H153.69L118.748 48.7238L84.145 1.72656H2.38672L78.038 101.773L2.38672 206.093H5.10072C5.55302 206.093 8.15392 205.499 12.9033 204.313C17.8789 202.888 23.8722 201.227 30.8833 199.328C37.8944 197.192 45.3577 194.937 53.2735 192.563C61.4153 190.19 68.8787 188.053 75.664 186.155C82.449 184.018 87.99 182.357 92.287 181.17C96.584 179.746 98.619 179.034 98.393 179.034L118.069 153.043L250.714 253.446H254.106Z" stroke="#BFEFB0" stroke-width="2"/>
</svg>
